<?xml version="1.0" encoding="UTF-8"?>
<svg id="Layer_1" data-name="Layer 1" xmlns="http://www.w3.org/2000/svg" viewBox="0 0 200 200">
  <defs>
    <style>
      .cls-1 {
        fill: #fff;
      }
    </style>
  </defs>
  <g id="_3EC86y" data-name="3EC86y">
    <g>
      <path class="cls-1" d="M154.89,173.07c-37.06,27.95-89.51,23.81-121.67-10.68-20.25-21.71-29.04-51.76-22.54-82.02,5.61-26.14,23.47-49.6,48.51-62.2C95.35-.02,139.29,8.12,166.7,37.5c37.26,39.94,31.68,102.77-11.81,135.57ZM155.64,160.54c37.53-34.58,34.94-94.01-4.98-125.31C115.91,7.99,65.95,13.11,37.4,46.62c-28.58,33.54-25.76,83.59,6.79,113.77,31.36,29.08,79.88,29.24,111.46.15Z"/>
      <path class="cls-1" d="M92.76,30.24c38.93-4,73.1,24.4,77.03,62.6,3.96,38.48-24.18,72.99-62.62,76.95-38.35,3.94-72.67-23.85-76.92-62.17-4.24-38.21,23.6-73.36,62.51-77.37ZM122.12,87.8l-.03-19.64-17.16.04v19.64s-9.89,0-9.89,0v-19.67s-17.15.03-17.15.03v19.65s-9.77-.01-9.77-.01v-19.67s-17.19.03-17.19.03v19.66s17.1.04,17.1.04v54.62s63.93,0,63.93,0v-54.64s17.02,0,17.02,0v-19.68s-17.12-.03-17.12-.03l-.02,19.69-9.74-.05Z"/>
    </g>
  </g>
</svg>